<?xml version="1.0" encoding="windows-1252"?>
<!-- Generator: Adobe Illustrator 18.0.0, SVG Export Plug-In . SVG Version: 6.00 Build 0)  -->
<!DOCTYPE svg PUBLIC "-//W3C//DTD SVG 1.1//EN" "http://www.w3.org/Graphics/SVG/1.1/DTD/svg11.dtd">
<svg version="1.1" id="Capa_1" xmlns="http://www.w3.org/2000/svg" xmlns:xlink="http://www.w3.org/1999/xlink" x="0px" y="0px" viewBox="0 0 461.047 461.047" style="enable-background:new 0 0 461.047 461.047;" xml:space="preserve">
<g>
	<g>
		<linearGradient id="SVGID_1_" gradientUnits="userSpaceOnUse" x1="87.1178" y1="268.0172" x2="120.3377" y2="268.0172">
			<stop offset="0" style="stop-color:#3BAD5B"/>
			<stop offset="1" style="stop-color:#005017"/>
		</linearGradient>
		<path style="fill:url(#SVGID_1_);" d="M118.568,243.131l-6.69-0.07l-24.76,47.1c9.46,2.18,20.39,3.23,33.22,2.66    c-3.9-8.62-5.89-18.12-5.75-28C114.698,257.261,116.068,249.951,118.568,243.131z"/>
		<linearGradient id="SVGID_2_" gradientUnits="userSpaceOnUse" x1="50.7278" y1="265.3406" x2="102.8877" y2="265.3406">
			<stop offset="0" style="stop-color:#3BAD5B"/>
			<stop offset="1" style="stop-color:#005017"/>
		</linearGradient>
		<path style="fill:url(#SVGID_2_);" d="M74.118,242.701l-23.39,29.92c7.74,6.1,16.91,11.61,28.49,15.36l23.67-45L74.118,242.701z"/>
		<linearGradient id="SVGID_3_" gradientUnits="userSpaceOnUse" x1="64.8177" y1="216.2806" x2="120.8678" y2="216.2806">
			<stop offset="0" style="stop-color:#3BAD5B"/>
			<stop offset="1" style="stop-color:#005017"/>
		</linearGradient>
		<path style="fill:url(#SVGID_3_);" d="M120.868,235.151l-18.8-27.78c-2.15-3.19-3.88-6.53-5.23-9.96    c-5.31,0.86-17.09,3.2-32.02,8.86l31.09,28.64L120.868,235.151z"/>
		<linearGradient id="SVGID_4_" gradientUnits="userSpaceOnUse" x1="15.0277" y1="222.1956" x2="83.9678" y2="222.1956">
			<stop offset="0" style="stop-color:#3BAD5B"/>
			<stop offset="1" style="stop-color:#005017"/>
		</linearGradient>
		<path style="fill:url(#SVGID_4_);" d="M56.618,209.591c-12.79,5.53-27.22,13.4-41.59,24.55l68.94,0.66L56.618,209.591z"/>
		<linearGradient id="SVGID_5_" gradientUnits="userSpaceOnUse" x1="18.6377" y1="254.8106" x2="64.0378" y2="254.8106">
			<stop offset="0" style="stop-color:#3BAD5B"/>
			<stop offset="1" style="stop-color:#005017"/>
		</linearGradient>
		<path style="fill:url(#SVGID_5_);" d="M18.638,242.171c4.51,3.7,8.84,8.16,13.49,12.97c3.87,4,7.94,8.21,12.49,12.31l19.42-24.84    L18.638,242.171z"/>
	</g>
	<g>
		<linearGradient id="SVGID_6_" gradientUnits="userSpaceOnUse" x1="244.8716" y1="319.8814" x2="274.0424" y2="303.0396">
			<stop offset="0" style="stop-color:#3BAD5B"/>
			<stop offset="1" style="stop-color:#005017"/>
		</linearGradient>
		<path style="fill:url(#SVGID_6_);" d="M266.428,289.851l-17.9,19.59c-1.72,1.89-3.53,3.68-5.41,5.37    c1.17,3.28,3.96,9.91,9.68,18.08l17.82-31.51L266.428,289.851z"/>
		<linearGradient id="SVGID_7_" gradientUnits="userSpaceOnUse" x1="265.2029" y1="352.1145" x2="289.65" y2="338">
			<stop offset="0" style="stop-color:#3BAD5B"/>
			<stop offset="1" style="stop-color:#005017"/>
		</linearGradient>
		<path style="fill:url(#SVGID_7_);" d="M258.088,339.791c8.06,9.66,20.01,20.56,37.57,30.38l-21.44-58.9L258.088,339.791z"/>
		<linearGradient id="SVGID_8_" gradientUnits="userSpaceOnUse" x1="284.225" y1="319.3769" x2="309.177" y2="304.9709">
			<stop offset="0" style="stop-color:#3BAD5B"/>
			<stop offset="1" style="stop-color:#005017"/>
		</linearGradient>
		<path style="fill:url(#SVGID_8_);" d="M317.208,318.881c-18.23-6.48-33.88-19.23-43.97-36.48l-0.72,0.79l15.67,43.05l31.78,15.82    c0.06-0.95,0.11-1.91,0.13-2.88C320.278,330.071,318.248,322.241,317.208,318.881z"/>
		<linearGradient id="SVGID_9_" gradientUnits="userSpaceOnUse" x1="295.7187" y1="356.2467" x2="315.4836" y2="344.8354">
			<stop offset="0" style="stop-color:#3BAD5B"/>
			<stop offset="1" style="stop-color:#005017"/>
		</linearGradient>
		<path style="fill:url(#SVGID_9_);" d="M304.878,372.111c7.02-5.72,11.63-13,13.79-21.76l-26.51-13.2L304.878,372.111z"/>
	</g>
	<g>
		<linearGradient id="SVGID_10_" gradientUnits="userSpaceOnUse" x1="297.2278" y1="306.0106" x2="297.2278" y2="266.7872">
			<stop offset="0" style="stop-color:#3BAD5B"/>
			<stop offset="1" style="stop-color:#005017"/>
		</linearGradient>
		<path style="fill:url(#SVGID_10_);" d="M296.408,267.211c-0.75-0.52-1.72-0.57-2.5-0.1v-0.01c-0.25,0.15-9.76,3.36-9.76,3.36    l-5.25,5.74c6.93,12.78,17.16,22.98,29.31,29.81l7.35-30.01C308.838,274.251,302.358,271.321,296.408,267.211z"/>
		<linearGradient id="SVGID_11_" gradientUnits="userSpaceOnUse" x1="328.0378" y1="314.9406" x2="328.0378" y2="277.4906">
			<stop offset="0" style="stop-color:#3BAD5B"/>
			<stop offset="1" style="stop-color:#005017"/>
		</linearGradient>
		<path style="fill:url(#SVGID_11_);" d="M330.528,277.931c-2.37,0-4.74-0.15-7.1-0.44l-7.87,32.15c6.01,2.57,12.39,4.36,18.98,5.3    l5.98-36.19l-3-1.24C335.198,277.781,332.868,277.931,330.528,277.931z"/>
		<linearGradient id="SVGID_12_" gradientUnits="userSpaceOnUse" x1="359.2477" y1="315.6997" x2="359.2477" y2="281.9106">
			<stop offset="0" style="stop-color:#3BAD5B"/>
			<stop offset="1" style="stop-color:#005017"/>
		</linearGradient>
		<path style="fill:url(#SVGID_12_);" d="M342.528,315.651c2.6,0.09,5.22,0.06,7.85-0.12l23.53-1.6l2.06-20.44l-27.87-11.58    L342.528,315.651z"/>
		<linearGradient id="SVGID_13_" gradientUnits="userSpaceOnUse" x1="399.9777" y1="313.3806" x2="399.9777" y2="296.7006">
			<stop offset="0" style="stop-color:#3BAD5B"/>
			<stop offset="1" style="stop-color:#005017"/>
		</linearGradient>
		<polygon style="fill:url(#SVGID_13_);" points="381.998,313.381 417.958,310.951 383.678,296.701   "/>
		<linearGradient id="SVGID_14_" gradientUnits="userSpaceOnUse" x1="373.6078" y1="279.1006" x2="373.6078" y2="252.9106">
			<stop offset="0" style="stop-color:#3BAD5B"/>
			<stop offset="1" style="stop-color:#005017"/>
		</linearGradient>
		<path style="fill:url(#SVGID_14_);" d="M396.418,262.461c-3.37-3.32-7-6.53-10.89-9.55c-0.11,0.07-0.22,0.15-0.33,0.23    l-20.6,14.14c-4.37,3-9.01,5.36-13.8,7.09l11.39,4.73L396.418,262.461z"/>
		<linearGradient id="SVGID_15_" gradientUnits="userSpaceOnUse" x1="399.7678" y1="306.2406" x2="399.7678" y2="268.5306">
			<stop offset="0" style="stop-color:#3BAD5B"/>
			<stop offset="1" style="stop-color:#005017"/>
		</linearGradient>
		<path style="fill:url(#SVGID_15_);" d="M427.488,306.241c-4.44-9.08-12.7-23.76-25.26-37.71l-30.18,14.67L427.488,306.241z"/>
	</g>
	<g>
		<linearGradient id="SVGID_16_" gradientUnits="userSpaceOnUse" x1="398.8386" y1="199.9799" x2="382.6809" y2="171.994">
			<stop offset="0" style="stop-color:#3BAD5B"/>
			<stop offset="1" style="stop-color:#005017"/>
		</linearGradient>
		<path style="fill:url(#SVGID_16_);" d="M378.368,181.831c8.48,3.73,15.59,10.18,19.95,18.45c2.02-1.66,4.42-3.74,7.09-6.23    l-27.64-19.22C378.078,177.131,378.278,179.471,378.368,181.831z"/>
		<linearGradient id="SVGID_17_" gradientUnits="userSpaceOnUse" x1="411.4048" y1="188.2741" x2="388.8949" y2="149.2857">
			<stop offset="0" style="stop-color:#3BAD5B"/>
			<stop offset="1" style="stop-color:#005017"/>
		</linearGradient>
		<path style="fill:url(#SVGID_17_);" d="M373.558,158.141c0.66,1.72,1.25,3.47,1.78,5.25l35.9,24.98    c4.13-4.22,8.64-9.23,13.24-15.04l-32.21-21.86L373.558,158.141z"/>
		<linearGradient id="SVGID_18_" gradientUnits="userSpaceOnUse" x1="438.531" y1="161.6213" x2="423.4698" y2="135.5344">
			<stop offset="0" style="stop-color:#3BAD5B"/>
			<stop offset="1" style="stop-color:#005017"/>
		</linearGradient>
		<path style="fill:url(#SVGID_18_);" d="M401.618,148.151l27.7,18.79c7.28-10.01,14.52-22,20.63-36.01L401.618,148.151z"/>
		<linearGradient id="SVGID_19_" gradientUnits="userSpaceOnUse" x1="415.3872" y1="139.8546" x2="397.946" y2="109.6455">
			<stop offset="0" style="stop-color:#3BAD5B"/>
			<stop offset="1" style="stop-color:#005017"/>
		</linearGradient>
		<path style="fill:url(#SVGID_19_);" d="M424.168,122.251c-10.08-3.28-21.31-6.92-34.25-7.97l-2.48,30.42l51.01-18.16    C433.888,125.401,429.168,123.871,424.168,122.251z"/>
		<linearGradient id="SVGID_20_" gradientUnits="userSpaceOnUse" x1="380.1393" y1="147.0897" x2="360.4883" y2="113.0532">
			<stop offset="0" style="stop-color:#3BAD5B"/>
			<stop offset="1" style="stop-color:#005017"/>
		</linearGradient>
		<path style="fill:url(#SVGID_20_);" d="M381.918,113.981c-11.07,0.09-23.34,2.27-37.1,8.12c10.8,7.18,19.62,17.08,25.51,28.7    l8.84-3.15L381.918,113.981z"/>
	</g>
	<linearGradient id="SVGID_21_" gradientUnits="userSpaceOnUse" x1="395.0681" y1="227.4957" x2="302.7678" y2="227.4957">
		<stop offset="0" style="stop-color:#F1464D"/>
		<stop offset="0.2237" style="stop-color:#ED1C24"/>
		<stop offset="0.331" style="stop-color:#E81B23"/>
		<stop offset="0.4594" style="stop-color:#D91A21"/>
		<stop offset="0.5986" style="stop-color:#C1171D"/>
		<stop offset="0.7455" style="stop-color:#A01318"/>
		<stop offset="0.8968" style="stop-color:#750E12"/>
		<stop offset="1" style="stop-color:#530A0D"/>
	</linearGradient>
	<path style="fill:url(#SVGID_21_);" d="M393.718,210.151c3.19,11.07,1.44,26.45-13.04,36.39l-20.6,14.15   c-17.45,11.97-39.8,12.22-57.31,1.13l10.83-6.46c12.85-7.66,21.85-20.48,24.68-35.17c2.33-12.05,0.33-24.47-5.46-35.11l30.48,1.22   C380.858,187.001,390.528,199.081,393.718,210.151z"/>
	<linearGradient id="SVGID_22_" gradientUnits="userSpaceOnUse" x1="347.0065" y1="132.4133" x2="322.8449" y2="174.2624">
		<stop offset="0" style="stop-color:#ED1C24"/>
		<stop offset="0.5614" style="stop-color:#941217"/>
		<stop offset="1" style="stop-color:#530A0D"/>
	</linearGradient>
	<path style="fill:url(#SVGID_22_);" d="M306.418,117.621c33.95,1.61,61.03,28.23,63.78,61.57c-2.34-0.5-4.74-0.81-7.18-0.91   l-35.69-1.43l-17.17-22.5c5.88-11.33,4.74-24.6-3.42-35.15c-0.44-0.56-0.89-1.1-1.36-1.63L306.418,117.621z"/>
	<linearGradient id="SVGID_23_" gradientUnits="userSpaceOnUse" x1="269.8517" y1="191.9405" x2="328.9711" y2="226.0732">
		<stop offset="0" style="stop-color:#670C10"/>
		<stop offset="0.0067" style="stop-color:#6D0D11"/>
		<stop offset="0.0574" style="stop-color:#941117"/>
		<stop offset="0.1099" style="stop-color:#B4151C"/>
		<stop offset="0.1638" style="stop-color:#CD181F"/>
		<stop offset="0.22" style="stop-color:#DF1A22"/>
		<stop offset="0.2795" style="stop-color:#EA1C23"/>
		<stop offset="0.3485" style="stop-color:#ED1C24"/>
		<stop offset="0.4385" style="stop-color:#E81B23"/>
		<stop offset="0.5463" style="stop-color:#D91A21"/>
		<stop offset="0.6631" style="stop-color:#C1171D"/>
		<stop offset="0.7864" style="stop-color:#A01318"/>
		<stop offset="0.9134" style="stop-color:#750E12"/>
		<stop offset="1" style="stop-color:#530A0D"/>
	</linearGradient>
	<path style="fill:url(#SVGID_23_);" d="M322.098,183.201c7.7,10.09,10.73,23.01,8.33,35.47c-2.41,12.46-10.04,23.33-20.93,29.82   l-14.88,8.88c-4.98-20.53-16.75-38.28-33.05-50.72c2.22-4.76,8.18-15.21,21.04-24.85c0.56-0.42,1.24-0.91,2.01-1.46   c4.66-3.34,13.09-9.38,20.83-18.98L322.098,183.201z"/>
	<linearGradient id="SVGID_24_" gradientUnits="userSpaceOnUse" x1="144.2941" y1="311.3511" x2="224.2812" y2="231.364">
		<stop offset="0" style="stop-color:#F36469"/>
		<stop offset="0.2237" style="stop-color:#ED1C24"/>
		<stop offset="0.3278" style="stop-color:#E01B22"/>
		<stop offset="0.5197" style="stop-color:#BE171D"/>
		<stop offset="0.776" style="stop-color:#881015"/>
		<stop offset="1" style="stop-color:#530A0D"/>
	</linearGradient>
	<path style="fill:url(#SVGID_24_);" d="M268.568,275.651l-25.94,28.39c-12.03,13.17-28.44,21.31-46.2,22.93   c-17.75,1.61-35.36-3.43-49.57-14.2l-1.51-1.15c-14.74-11.17-23.03-28.19-22.76-46.68c0.28-18.49,9.07-35.25,24.13-45.99   l14.43-10.28l-0.47,17.54c-0.54,19.8,8.35,38.86,24.3,50.61c10.51,7.74,22.73,11.72,35.23,11.72c6.37,0,12.82-1.04,19.14-3.14   L268.568,275.651z"/>
	<linearGradient id="SVGID_25_" gradientUnits="userSpaceOnUse" x1="101.4594" y1="173.2465" x2="163.8719" y2="188.8077">
		<stop offset="0" style="stop-color:#ED1C24"/>
		<stop offset="0.1492" style="stop-color:#E91B23"/>
		<stop offset="0.3119" style="stop-color:#DB1A21"/>
		<stop offset="0.481" style="stop-color:#C6171E"/>
		<stop offset="0.6544" style="stop-color:#A7141A"/>
		<stop offset="0.8295" style="stop-color:#800F14"/>
		<stop offset="1" style="stop-color:#530A0D"/>
	</linearGradient>
	<path style="fill:url(#SVGID_25_);" d="M161.958,178.861l-0.54,19.79l-19.34,13.79c-6.35,4.52-11.72,9.99-15.98,16.15l-17.4-25.71   c-12.84-18.97-8.48-44.52,9.93-58.16l0.4-0.29c13.09-9.7,30.46-10.99,44.72-3.74c-4.28,3.4-7.41,8.18-8.82,13.83   C152.678,163.531,155.368,172.631,161.958,178.861z"/>
	<linearGradient id="SVGID_26_" gradientUnits="userSpaceOnUse" x1="165.3345" y1="101.9652" x2="214.5749" y2="130.3942">
		<stop offset="0" style="stop-color:#ED1C24"/>
		<stop offset="0.1707" style="stop-color:#E91C23"/>
		<stop offset="0.3317" style="stop-color:#DE1A22"/>
		<stop offset="0.4889" style="stop-color:#CB181F"/>
		<stop offset="0.6437" style="stop-color:#B0151B"/>
		<stop offset="0.7968" style="stop-color:#8D1116"/>
		<stop offset="0.9465" style="stop-color:#640C10"/>
		<stop offset="1" style="stop-color:#530A0D"/>
	</linearGradient>
	<path style="fill:url(#SVGID_26_);" d="M210.348,97.521l13.65,3.08c-2.77,5.32-4.34,11.18-4.58,17.29l-0.17,4.41   c-8.22,0.98-14.92,3.98-20.02,9.04c-0.07,0.07-0.13,0.14-0.2,0.21c-1.11,0.18-11.66,1.94-23.71,4.01   c-1.09,0.19-2.15,0.45-3.18,0.77c-6.77-4.43-14.34-7.07-22.06-7.94l6.8-9.91C168.798,101.091,189.788,92.871,210.348,97.521z"/>
	<linearGradient id="SVGID_27_" gradientUnits="userSpaceOnUse" x1="239.765" y1="93.4559" x2="275.0237" y2="128.7146">
		<stop offset="0" style="stop-color:#ED1C24"/>
		<stop offset="0.2068" style="stop-color:#EA1C24"/>
		<stop offset="0.3676" style="stop-color:#E01A22"/>
		<stop offset="0.5129" style="stop-color:#D01920"/>
		<stop offset="0.649" style="stop-color:#B8161C"/>
		<stop offset="0.7788" style="stop-color:#9A1218"/>
		<stop offset="0.9021" style="stop-color:#760E12"/>
		<stop offset="1" style="stop-color:#530A0D"/>
	</linearGradient>
	<path style="fill:url(#SVGID_27_);" d="M285.218,98.031l9.47,11.02l-0.69-0.03c-8.03-3.65-17.33-3.86-26.22-0.17   c-1.93,0.81-3.55,2.06-4.75,3.62c-2.78,0.63-13.1,3.38-23.72,10.86c-4.27-0.8-8.28-1.25-12.04-1.36l0.14-3.77   c0.28-6.96,2.69-13.53,6.97-19.01c4.29-5.48,10.09-9.4,16.77-11.33C263.478,84.291,276.848,88.281,285.218,98.031z"/>
	<linearGradient id="SVGID_28_" gradientUnits="userSpaceOnUse" x1="286.5257" y1="114.1706" x2="286.5257" y2="184.7506">
		<stop offset="0" style="stop-color:#F1464D"/>
		<stop offset="0.2237" style="stop-color:#ED1C24"/>
		<stop offset="0.331" style="stop-color:#E81B23"/>
		<stop offset="0.4594" style="stop-color:#D91A21"/>
		<stop offset="0.5986" style="stop-color:#C1171D"/>
		<stop offset="0.7455" style="stop-color:#A01318"/>
		<stop offset="0.8968" style="stop-color:#750E12"/>
		<stop offset="1" style="stop-color:#530A0D"/>
	</linearGradient>
	<path style="fill:url(#SVGID_28_);" d="M300.408,124.101c5.42,7,8.72,19.19,0.19,30.47c-7.4,9.78-15.69,15.72-20.64,19.27   c-0.83,0.59-1.55,1.11-2.15,1.56c-4.13,3.1-7.63,6.27-10.57,9.35c4.73-10.36,11.69-19.65,20.53-27.21   c4.44-3.79,6.62-9.51,5.84-15.29s-4.4-10.71-9.69-13.19l-13.22-6.2c-1.98-0.93-2.09-2.81-2.08-3.36c0.02-0.55,0.21-2.42,2.23-3.26   c3.48-1.44,6.81-2.07,9.93-2.07C289.408,114.171,296.408,118.931,300.408,124.101z"/>
	<linearGradient id="SVGID_29_" gradientUnits="userSpaceOnUse" x1="247.9677" y1="136.5606" x2="285.7638" y2="136.5606">
		<stop offset="0" style="stop-color:#ED1C24"/>
		<stop offset="0.1907" style="stop-color:#C5171E"/>
		<stop offset="0.4553" style="stop-color:#941217"/>
		<stop offset="0.6881" style="stop-color:#710D11"/>
		<stop offset="0.8775" style="stop-color:#5B0B0E"/>
		<stop offset="1" style="stop-color:#530A0D"/>
	</linearGradient>
	<path style="fill:url(#SVGID_29_);" d="M267.308,130.101l13.22,6.2c2.85,1.34,4.73,3.9,5.15,7.02c0.42,3.12-0.71,6.09-3.1,8.14   c-0.1,0.08-0.19,0.16-0.28,0.25l-14.72-18.17c-0.88-1.08-2.26-1.63-3.64-1.44c-1.39,0.19-2.58,1.09-3.14,2.37   c-0.01,0.03-0.19,0.44-0.57,1.14c-3.11-3.41-7.34-6.77-12.26-8.38c4.97-2.95,9.58-4.78,12.8-5.82   C261.348,125.191,263.718,128.421,267.308,130.101z"/>
	<linearGradient id="SVGID_30_" gradientUnits="userSpaceOnUse" x1="247.6877" y1="134.2889" x2="247.6877" y2="151.4406">
		<stop offset="0" style="stop-color:#ED1C24"/>
		<stop offset="0.0202" style="stop-color:#E21B22"/>
		<stop offset="0.1253" style="stop-color:#AE151A"/>
		<stop offset="0.2348" style="stop-color:#7F0F13"/>
		<stop offset="0.3465" style="stop-color:#580A0D"/>
		<stop offset="0.4611" style="stop-color:#380709"/>
		<stop offset="0.5793" style="stop-color:#1F0405"/>
		<stop offset="0.7027" style="stop-color:#0E0202"/>
		<stop offset="0.8348" style="stop-color:#030001"/>
		<stop offset="0.9906" style="stop-color:#000000"/>
	</linearGradient>
	<path style="fill:url(#SVGID_30_);" d="M255.538,142.471c-2.48,2.95-5.91,6.25-10.42,8.97l-5.28-16.91   C246.858,133.011,252.788,139.021,255.538,142.471z"/>
	<linearGradient id="SVGID_31_" gradientUnits="userSpaceOnUse" x1="230.8528" y1="139.8006" x2="230.8528" y2="156.5681">
		<stop offset="0" style="stop-color:#ED1C24"/>
		<stop offset="0.0202" style="stop-color:#E21B22"/>
		<stop offset="0.1253" style="stop-color:#AE151A"/>
		<stop offset="0.2348" style="stop-color:#7F0F13"/>
		<stop offset="0.3465" style="stop-color:#580A0D"/>
		<stop offset="0.4611" style="stop-color:#380709"/>
		<stop offset="0.5793" style="stop-color:#1F0405"/>
		<stop offset="0.7027" style="stop-color:#0E0202"/>
		<stop offset="0.8348" style="stop-color:#030001"/>
		<stop offset="0.9906" style="stop-color:#000000"/>
	</linearGradient>
	<path style="fill:url(#SVGID_31_);" d="M233.108,139.801l4.71,15.1c-0.1,0.03-0.19,0.07-0.28,0.1c-5.47,1.88-10.02,1.86-13.65,1.03   C226.208,149.561,229.438,144.211,233.108,139.801z"/>
	<linearGradient id="SVGID_32_" gradientUnits="userSpaceOnUse" x1="213.8201" y1="129.9112" x2="213.8201" y2="180.8306">
		<stop offset="0" style="stop-color:#ED1C24"/>
		<stop offset="0.1907" style="stop-color:#C5171E"/>
		<stop offset="0.4553" style="stop-color:#941217"/>
		<stop offset="0.6881" style="stop-color:#710D11"/>
		<stop offset="0.8775" style="stop-color:#5B0B0E"/>
		<stop offset="1" style="stop-color:#530A0D"/>
	</linearGradient>
	<path style="fill:url(#SVGID_32_);" d="M204.888,137.001c5.72-5.67,14.51-7.95,26.18-6.8c-5.74,5.66-10.98,13.03-14.49,22.56   c-1.97-1.41-3.02-2.69-3.13-2.83c-1.05-1.36-2.86-1.9-4.48-1.33c-1.62,0.56-2.71,2.1-2.69,3.82l0.32,28.41   c-3.4-2.52-6.48-5.43-9.22-8.67C196.968,169.831,193.528,148.241,204.888,137.001z"/>
	<linearGradient id="SVGID_33_" gradientUnits="userSpaceOnUse" x1="162.1525" y1="166.3756" x2="210.2578" y2="166.3756">
		<stop offset="0" style="stop-color:#ED1C24"/>
		<stop offset="0.5614" style="stop-color:#941217"/>
		<stop offset="1" style="stop-color:#530A0D"/>
	</linearGradient>
	<path style="fill:url(#SVGID_33_);" d="M176.668,143.451c6.08-1.05,11.78-2.01,16.07-2.73c-2.69,5.81-3.76,12.11-4.08,17.65   c-1.47-3.19-2.7-6.53-3.66-9.98c-0.61-2.18-2.91-3.44-5.09-2.73c-2.05,0.66-3.16,2.92-2.58,4.99c5,17.99,16.92,32.74,32.93,41.38   c-12.36-2.14-27.55-7.02-41.47-17.82c-5.44-4.22-7.78-11.02-6.1-17.75C164.028,151.101,168.408,144.871,176.668,143.451z"/>
	<linearGradient id="SVGID_34_" gradientUnits="userSpaceOnUse" x1="245.4177" y1="143.1306" x2="245.4177" y2="201.2806">
		<stop offset="0" style="stop-color:#ED1C24"/>
		<stop offset="0.1907" style="stop-color:#C5171E"/>
		<stop offset="0.4553" style="stop-color:#941217"/>
		<stop offset="0.6881" style="stop-color:#710D11"/>
		<stop offset="0.8775" style="stop-color:#5B0B0E"/>
		<stop offset="1" style="stop-color:#530A0D"/>
	</linearGradient>
	<path style="fill:url(#SVGID_34_);" d="M265.058,143.131l11.4,14.08c-11.73,12.17-19.62,27.43-22.78,44.07   c-6.46-3.93-13.48-7.09-20.94-9.36l-10.43-3.17c-2.67-0.81-5.22-1.83-7.65-3.02l-0.28-24.89c5.54,3.19,14.2,5.7,25.76,1.73   C253.348,158.031,261.158,148.991,265.058,143.131z"/>
	<linearGradient id="SVGID_35_" gradientUnits="userSpaceOnUse" x1="231.386" y1="190.1489" x2="223.4372" y2="281.0033">
		<stop offset="0" style="stop-color:#660C10"/>
		<stop offset="0.2039" style="stop-color:#ED1C24"/>
		<stop offset="0.314" style="stop-color:#E81B23"/>
		<stop offset="0.4456" style="stop-color:#D91A21"/>
		<stop offset="0.5884" style="stop-color:#C1171D"/>
		<stop offset="0.739" style="stop-color:#A01318"/>
		<stop offset="0.8942" style="stop-color:#750E12"/>
		<stop offset="1" style="stop-color:#530A0D"/>
	</linearGradient>
	<path style="fill:url(#SVGID_35_);" d="M287.248,260.991l-50.43,16.82c-16.26,5.41-33.48,2.67-47.24-7.54   c-13.76-10.2-21.39-25.88-20.93-43.01l1.15-42.5c22.11,14.6,45.54,16.86,57.88,16.86c3.69,0,6.39-0.2,7.77-0.34   C261.778,211.131,281.188,233.441,287.248,260.991z"/>
	<path d="M460.168,121.661c0.89,1.11,1.12,2.6,0.62,3.93c-17.49,45.82-47.53,73.07-59.36,82.47c4.12,14.44,0.33,29.18-9.69,39.56   c32.63,25.98,46.62,63.15,47.22,64.78c0.44,1.18,0.29,2.5-0.39,3.56c-0.69,1.06-1.83,1.73-3.09,1.82l-84.55,5.73   c-1.92,0.13-3.83,0.19-5.74,0.19c-6.48,0-12.84-0.76-18.99-2.19c1.02,4.46,2.01,10.63,1.9,17.55c-0.29,18.4-8.24,33.19-22.99,42.76   c-0.66,0.43-1.41,0.65-2.18,0.65c-0.59,0-1.19-0.14-1.74-0.4c-44.32-21.47-59.84-49.93-64.65-61.94   c-11.47,8.34-25.02,13.5-39.38,14.81c-2.42,0.22-4.84,0.32-7.24,0.32c-17.25,0-34.03-5.6-47.9-16.12l-1.5-1.14   c-6.47-4.9-11.84-10.8-15.99-17.39c-3.74,0.24-7.34,0.37-10.8,0.37c-48.41,0-70.7-23.06-87.35-40.28   c-8.25-8.53-15.37-15.89-23.73-18.9c-1.33-0.48-2.31-1.63-2.58-3.03c-0.26-1.39,0.24-2.82,1.3-3.75   c38.81-33.9,79.54-43.12,93.11-45.36c-4.1-18.89,2.9-39.15,19.39-51.37l0.4-0.29c7.83-5.8,16.94-9.06,26.22-9.78l9.79-14.27   c13.79-20.1,38.06-29.61,61.83-24.24l16.61,3.76c5.27-6.4,12.23-10.99,20.21-13.29c15.32-4.44,31.95,0.52,42.36,12.64l14.4,16.75   l1.11,0.06c10.56,0.5,20.52,3.18,29.47,7.57c39.65-19,67.74-9.91,90.37-2.56c11.29,3.66,21.04,6.83,29.84,5.56   C457.888,120.001,459.288,120.561,460.168,121.661z M449.948,130.931l-48.33,17.22l27.7,18.79   C436.598,156.931,443.838,144.941,449.948,130.931z M387.438,144.701l51.01-18.16c-4.56-1.14-9.28-2.67-14.28-4.29   c-10.08-3.28-21.31-6.92-34.25-7.97L387.438,144.701z M372.048,283.201l55.44,23.04c-4.44-9.08-12.7-23.76-25.26-37.71   L372.048,283.201z M424.478,173.331l-32.21-21.86l-18.71,6.67c0.66,1.72,1.25,3.47,1.78,5.25l35.9,24.98   C415.368,184.151,419.878,179.141,424.478,173.331z M381.998,313.381l35.96-2.43l-34.28-14.25L381.998,313.381z M405.408,194.051   l-27.64-19.22c0.31,2.3,0.51,4.64,0.6,7c8.48,3.73,15.59,10.18,19.95,18.45C400.338,198.621,402.738,196.541,405.408,194.051z    M362.188,279.101l34.23-16.64c-3.37-3.32-7-6.53-10.89-9.55c-0.11,0.07-0.22,0.15-0.33,0.23l-20.6,14.14   c-4.37,3-9.01,5.36-13.8,7.09L362.188,279.101z M380.678,246.541c14.48-9.94,16.23-25.32,13.04-36.39   c-3.19-11.07-12.86-23.15-30.42-23.85l-30.48-1.22c5.79,10.64,7.79,23.06,5.46,35.11c-2.83,14.69-11.83,27.51-24.68,35.17   l-10.83,6.46c17.51,11.09,39.86,10.84,57.31-1.13L380.678,246.541z M379.168,147.651l2.75-33.67c-11.07,0.09-23.34,2.27-37.1,8.12   c10.8,7.18,19.62,17.08,25.51,28.7L379.168,147.651z M373.908,313.931l2.06-20.44l-27.87-11.58l-5.57,33.74   c2.6,0.09,5.22,0.06,7.85-0.12L373.908,313.931z M363.018,178.281c2.44,0.1,4.84,0.41,7.18,0.91   c-2.75-33.34-29.83-59.96-63.78-61.57l-1.04-0.05c0.47,0.53,0.92,1.07,1.36,1.63c8.16,10.55,9.3,23.82,3.42,35.15l17.17,22.5   L363.018,178.281z M334.538,314.941l5.98-36.19l-3-1.24c-2.32,0.27-4.65,0.42-6.99,0.42c-2.37,0-4.74-0.15-7.1-0.44l-7.87,32.15   C321.568,312.211,327.948,314.001,334.538,314.941z M330.428,218.671c2.4-12.46-0.63-25.38-8.33-35.47l-16.65-21.84   c-7.74,9.6-16.17,15.64-20.83,18.98c-0.77,0.55-1.45,1.04-2.01,1.46c-12.86,9.64-18.82,20.09-21.04,24.85   c16.3,12.44,28.07,30.19,33.05,50.72l14.88-8.88C320.388,242.001,328.018,231.131,330.428,218.671z M320.098,339.181   c0.18-9.11-1.85-16.94-2.89-20.3c-18.23-6.48-33.88-19.23-43.97-36.48l-0.72,0.79l15.67,43.05l31.78,15.82   C320.028,341.111,320.078,340.151,320.098,339.181z M318.668,350.351l-26.51-13.2l12.72,34.96   C311.898,366.391,316.508,359.111,318.668,350.351z M308.208,306.011l7.35-30.01c-6.72-1.75-13.2-4.68-19.15-8.79   c-0.75-0.52-1.72-0.57-2.5-0.1v-0.01c-0.25,0.15-9.76,3.36-9.76,3.36l-5.25,5.74C285.828,288.981,296.058,299.181,308.208,306.011z    M300.598,154.571c8.53-11.28,5.23-23.47-0.19-30.47c-4-5.17-11-9.93-19.63-9.93c-3.12,0-6.45,0.63-9.93,2.07   c-2.02,0.84-2.21,2.71-2.23,3.26c-0.01,0.55,0.1,2.43,2.08,3.36l13.22,6.2c5.29,2.48,8.91,7.41,9.69,13.19s-1.4,11.5-5.84,15.29   c-8.84,7.56-15.8,16.85-20.53,27.21c2.94-3.08,6.44-6.25,10.57-9.35c0.6-0.45,1.32-0.97,2.15-1.56   C284.908,170.291,293.198,164.351,300.598,154.571z M295.658,370.171l-21.44-58.9l-16.13,28.52   C266.148,349.451,278.098,360.351,295.658,370.171z M294.688,109.051l-9.47-11.02c-8.37-9.75-21.74-13.74-34.07-10.17   c-6.68,1.93-12.48,5.85-16.77,11.33c-4.28,5.48-6.69,12.05-6.97,19.01l-0.14,3.77c3.76,0.11,7.77,0.56,12.04,1.36   c10.62-7.48,20.94-10.23,23.72-10.86c1.2-1.56,2.82-2.81,4.75-3.62c8.89-3.69,18.19-3.48,26.22,0.17L294.688,109.051z    M236.818,277.811l50.43-16.82c-6.06-27.55-25.47-49.86-51.8-59.71c-1.38,0.14-4.08,0.34-7.77,0.34   c-12.34,0-35.77-2.26-57.88-16.86l-1.15,42.5c-0.46,17.13,7.17,32.81,20.93,43.01C203.338,280.481,220.558,283.221,236.818,277.811   z M282.578,151.461c2.39-2.05,3.52-5.02,3.1-8.14c-0.42-3.12-2.3-5.68-5.15-7.02l-13.22-6.2c-3.59-1.68-5.96-4.91-6.54-8.69   c-3.22,1.04-7.83,2.87-12.8,5.82c4.92,1.61,9.15,4.97,12.26,8.38c0.38-0.7,0.56-1.11,0.57-1.14c0.56-1.28,1.75-2.18,3.14-2.37   c1.38-0.19,2.76,0.36,3.64,1.44l14.72,18.17C282.388,151.621,282.478,151.541,282.578,151.461z M276.458,157.211l-11.4-14.08   c-3.9,5.86-11.71,14.9-24.92,19.44c-11.56,3.97-20.22,1.46-25.76-1.73l0.28,24.89c2.43,1.19,4.98,2.21,7.65,3.02l10.43,3.17   c7.46,2.27,14.48,5.43,20.94,9.36C256.838,184.641,264.728,169.381,276.458,157.211z M270.618,301.381l-4.19-11.53l-17.9,19.59   c-1.72,1.89-3.53,3.68-5.41,5.37c1.17,3.28,3.96,9.91,9.68,18.08L270.618,301.381z M242.628,304.041l25.94-28.39l-29.22,9.75   c-6.32,2.1-12.77,3.14-19.14,3.14c-12.5,0-24.72-3.98-35.23-11.72c-15.95-11.75-24.84-30.81-24.3-50.61l0.47-17.54l-14.43,10.28   c-15.06,10.74-23.85,27.5-24.13,45.99c-0.27,18.49,8.02,35.51,22.76,46.68l1.51,1.15c14.21,10.77,31.82,15.81,49.57,14.2   C214.188,325.351,230.598,317.211,242.628,304.041z M245.118,151.441c4.51-2.72,7.94-6.02,10.42-8.97   c-2.75-3.45-8.68-9.46-15.7-7.94L245.118,151.441z M237.818,154.901l-4.71-15.1c-3.67,4.41-6.9,9.76-9.22,16.23   c3.63,0.83,8.18,0.85,13.65-1.03C237.628,154.971,237.718,154.931,237.818,154.901z M231.068,130.201   c-11.67-1.15-20.46,1.13-26.18,6.8c-11.36,11.24-7.92,32.83-7.51,35.16c2.74,3.24,5.82,6.15,9.22,8.67l-0.32-28.41   c-0.02-1.72,1.07-3.26,2.69-3.82c1.62-0.57,3.43-0.03,4.48,1.33c0.11,0.14,1.16,1.42,3.13,2.83   C220.088,143.231,225.328,135.861,231.068,130.201z M223.998,100.601l-13.65-3.08c-20.56-4.65-41.55,3.57-53.47,20.96l-6.8,9.91   c7.72,0.87,15.29,3.51,22.06,7.94c1.03-0.32,2.09-0.58,3.18-0.77c12.05-2.07,22.6-3.83,23.71-4.01c0.07-0.07,0.13-0.14,0.2-0.21   c5.1-5.06,11.8-8.06,20.02-9.04l0.17-4.41C219.658,111.781,221.228,105.921,223.998,100.601z M168.788,174.211   c13.92,10.8,29.11,15.68,41.47,17.82c-16.01-8.64-27.93-23.39-32.93-41.38c-0.58-2.07,0.53-4.33,2.58-4.99   c2.18-0.71,4.48,0.55,5.09,2.73c0.96,3.45,2.19,6.79,3.66,9.98c0.32-5.54,1.39-11.84,4.08-17.65c-4.29,0.72-9.99,1.68-16.07,2.73   c-8.26,1.42-12.64,7.65-13.98,13.01C161.008,163.191,163.348,169.991,168.788,174.211z M161.418,198.651l0.54-19.79   c-6.59-6.23-9.28-15.33-7.03-24.34c1.41-5.65,4.54-10.43,8.82-13.83c-14.26-7.25-31.63-5.96-44.72,3.74l-0.4,0.29   c-18.41,13.64-22.77,39.19-9.93,58.16l17.4,25.71c4.26-6.16,9.63-11.63,15.98-16.15L161.418,198.651z M120.868,235.151l-18.8-27.78   c-2.15-3.19-3.88-6.53-5.23-9.96c-5.31,0.86-17.09,3.2-32.02,8.86l31.09,28.64L120.868,235.151z M118.568,243.131l-6.69-0.07   l-24.76,47.1c9.46,2.18,20.39,3.23,33.22,2.66c-3.9-8.62-5.89-18.12-5.75-28C114.698,257.261,116.068,249.951,118.568,243.131z    M79.218,287.981l23.67-45l-28.77-0.28l-23.39,29.92C58.468,278.721,67.638,284.231,79.218,287.981z M15.028,234.141l68.94,0.66   l-27.35-25.21C43.828,215.121,29.398,222.991,15.028,234.141z M44.618,267.451l19.42-24.84l-45.4-0.44   c4.51,3.7,8.84,8.16,13.49,12.97C35.998,259.141,40.068,263.351,44.618,267.451z"/>
</g>
<g>
</g>
<g>
</g>
<g>
</g>
<g>
</g>
<g>
</g>
<g>
</g>
<g>
</g>
<g>
</g>
<g>
</g>
<g>
</g>
<g>
</g>
<g>
</g>
<g>
</g>
<g>
</g>
<g>
</g>
<head xmlns=""/></svg>