<?xml version="1.0" standalone="no"?>
<!DOCTYPE svg PUBLIC "-//W3C//DTD SVG 20010904//EN"
 "http://www.w3.org/TR/2001/REC-SVG-20010904/DTD/svg10.dtd">
<svg version="1.0" xmlns="http://www.w3.org/2000/svg"
 width="1692.000000pt" height="1692.000000pt" viewBox="0 0 1692.000000 1692.000000"
 preserveAspectRatio="xMidYMid meet">
<metadata>
Created by potrace 1.11, written by Peter Selinger 2001-2013
</metadata>
<g transform="translate(0.000000,1692.000000) scale(0.100000,-0.100000)"
fill="#000000" stroke="none">
<path d="M8374 11955 c-10 -26 4 -45 34 -45 25 0 29 -3 25 -24 -4 -17 1 -27
14 -34 27 -15 68 7 69 36 1 23 -27 47 -41 34 -4 -4 -3 3 4 15 17 32 16 33 -44
33 -40 0 -57 -4 -61 -15z"/>
<path d="M10500 11927 c-19 -11 -55 -31 -80 -45 -80 -45 -114 -69 -165 -116
-27 -25 -65 -51 -84 -57 -54 -18 -204 -16 -351 6 -78 11 -113 15 -185 21 -44
3 -91 7 -105 9 -14 2 -68 7 -120 10 -52 4 -111 9 -130 11 -54 6 -302 5 -332
-1 -16 -3 -38 -7 -50 -9 -53 -9 -154 -39 -181 -53 -17 -8 -26 -10 -22 -3 4 6
4 22 1 36 -8 31 -60 34 -76 4 -12 -23 2 -60 23 -60 7 0 -17 -16 -53 -36 -36
-20 -104 -65 -152 -101 l-87 -64 -43 27 c-24 15 -47 33 -53 38 -5 6 -30 18
-55 27 -32 11 -46 22 -50 40 -5 20 -12 23 -36 21 -57 -5 -70 -4 -164 16 -52
12 -126 24 -165 27 -79 7 -253 7 -303 0 -18 -2 -52 -7 -75 -10 -99 -15 -210
-47 -327 -95 -195 -80 -283 -89 -415 -45 -47 16 -78 29 -239 105 -35 17 -67
30 -70 30 -5 0 8 -47 24 -85 23 -54 50 -152 50 -179 0 -94 -56 -181 -227 -351
-114 -115 -134 -140 -170 -215 -38 -79 -65 -156 -66 -188 0 -8 -10 -18 -23
-22 -24 -10 -54 -47 -54 -68 0 -11 8 -13 31 -8 l30 6 -3 -52 c-3 -49 -5 -52
-36 -60 -25 -7 -37 -18 -48 -45 -13 -31 -14 -38 -1 -50 20 -20 48 -23 73 -7
21 12 22 11 19 -20 -2 -18 -11 -62 -20 -97 -14 -55 -21 -97 -24 -159 -1 -10
-12 -15 -33 -16 -18 0 -41 -4 -50 -8 -13 -6 -18 -4 -18 9 0 9 5 13 10 10 15
-9 40 14 40 36 0 24 -16 32 -46 25 -16 -4 -24 -13 -24 -29 0 -13 -9 -26 -22
-32 -45 -20 -23 -83 25 -71 16 4 26 0 34 -13 10 -16 1 -28 -69 -92 -146 -133
-290 -321 -373 -488 -97 -193 -144 -352 -170 -571 -5 -44 -6 -45 -15 -22 -14
32 -67 31 -80 -2 -7 -19 -17 -25 -47 -28 -35 -3 -38 -6 -41 -35 -3 -25 2 -35
22 -48 31 -21 53 -14 65 18 7 17 20 27 45 31 20 4 37 14 39 24 5 15 -1 -104
-8 -168 -2 -14 -3 -33 -4 -42 -1 -16 -19 -17 -198 -17 -109 1 -207 0 -219 0
-18 -1 -20 -8 -22 -83 -1 -46 -5 -92 -9 -103 -6 -20 -6 -20 -13 0 -4 11 -6 57
-5 103 1 45 -2 82 -7 82 -9 0 -10 -13 -9 -154 0 -54 2 -101 5 -103 2 -3 104
-5 226 -5 l221 0 -6 -36 c-5 -33 -24 -141 -29 -167 -10 -46 -41 -136 -58 -162
-10 -18 -55 -58 -99 -89 -77 -54 -108 -86 -146 -151 -10 -18 -51 -84 -90 -148
-40 -63 -73 -117 -73 -120 0 -2 78 43 174 101 l175 104 98 -31 c54 -17 100
-33 102 -34 1 -2 -9 -19 -23 -38 -21 -28 -39 -37 -94 -52 -37 -9 -92 -28 -122
-40 -30 -13 -88 -28 -128 -35 -60 -10 -79 -18 -108 -46 -30 -28 -35 -38 -30
-61 9 -38 50 -73 76 -66 11 3 34 22 50 43 16 21 51 47 76 59 l46 22 59 -21
c32 -11 65 -20 73 -20 7 0 19 -6 25 -14 15 -18 -7 -44 -82 -94 -32 -22 -107
-86 -166 -143 -58 -57 -130 -120 -158 -139 -66 -44 -98 -97 -82 -134 16 -35
53 -34 104 5 22 16 99 87 170 157 93 91 149 137 195 162 35 18 94 55 130 81
36 26 75 50 86 53 26 8 74 -9 74 -26 0 -7 -23 -35 -51 -62 -44 -42 -79 -100
-102 -166 -9 -28 -99 -141 -134 -167 -42 -32 -54 -53 -46 -81 4 -16 13 -22 34
-22 24 0 35 10 72 68 24 37 50 74 58 82 8 8 48 60 89 114 72 96 117 146 132
146 4 0 -6 -30 -22 -66 -17 -36 -30 -70 -30 -75 0 -5 -9 -28 -19 -52 -28 -62
-110 -309 -127 -382 -1 -5 -14 -57 -28 -115 -14 -58 -27 -116 -30 -130 -2 -14
-7 -36 -10 -50 -3 -14 -8 -37 -10 -51 l-4 -25 76 18 c43 11 90 23 106 28 16 5
32 8 34 5 3 -3 -13 -46 -36 -97 -51 -116 -117 -328 -136 -438 -3 -19 -8 -46
-11 -60 -25 -115 -29 -138 -49 -310 -22 -180 -24 -203 -31 -288 l-5 -72 55 0
c61 0 56 -4 115 105 69 130 189 321 275 439 92 127 211 266 226 266 5 0 6 -12
4 -27 -10 -54 -14 -78 -14 -98 -1 -18 -6 -20 -35 -17 -29 3 -34 1 -38 -21 -8
-39 22 -82 50 -72 10 4 12 -5 8 -33 -3 -20 -8 -66 -12 -101 l-6 -65 88 104
c77 90 88 100 95 82 9 -24 38 -42 69 -42 13 0 26 12 37 35 13 27 23 35 44 35
52 0 79 59 43 94 -27 28 -62 20 -85 -19 -15 -25 -28 -35 -45 -35 l-24 0 27 32
c37 42 246 250 314 313 109 100 108 100 121 87 7 -7 20 -12 30 -12 11 0 18 -7
18 -20 0 -17 -4 -19 -25 -14 -17 4 -32 1 -43 -9 -9 -9 -29 -18 -44 -22 -59
-15 -95 -101 -54 -131 38 -27 126 15 126 60 0 12 39 55 41 45 5 -27 7 -42 13
-92 6 -57 6 -58 -24 -75 -42 -24 -47 -54 -19 -114 13 -29 24 -70 24 -97 1 -35
4 -45 15 -43 8 2 18 8 21 14 3 5 17 8 30 7 13 -2 29 0 35 3 9 6 59 -59 110
-144 16 -27 188 -195 262 -256 35 -28 74 -55 87 -58 20 -5 72 1 105 11 3 1 17
5 33 9 33 10 33 10 2 65 -26 45 -31 85 -15 111 8 13 10 13 10 -1 0 -22 27 -32
51 -19 21 12 34 50 26 80 -7 26 31 44 146 69 74 16 116 19 260 15 95 -3 206
-6 247 -6 234 -3 398 49 551 174 44 36 66 48 55 30 -9 -14 10 -33 27 -26 24 9
34 55 15 67 -12 8 -6 22 32 81 26 39 56 92 66 118 13 34 28 51 52 62 51 25 64
88 21 101 -14 5 -17 12 -13 29 7 30 12 58 13 74 1 10 5 10 17 -2 19 -20 37
-20 75 0 33 17 48 45 41 80 -9 46 -64 39 -110 -14 l-23 -27 7 30 c10 43 14 47
162 146 116 78 136 88 146 74 6 -8 22 -17 35 -20 22 -4 32 -10 78 -49 25 -22
23 -56 -6 -91 -20 -23 -17 -61 5 -69 14 -5 52 8 64 23 3 3 19 13 35 22 29 15
31 15 88 -24 87 -58 220 -133 332 -187 96 -47 337 -142 343 -135 3 3 -24 64
-92 207 -51 108 -55 124 -28 109 29 -16 295 -115 417 -156 142 -47 431 -127
565 -155 115 -24 111 -23 225 -40 44 -6 91 -13 105 -15 53 -10 224 -16 215 -8
-12 10 -168 202 -180 222 -5 9 -4 12 2 8 27 -17 449 -25 648 -13 111 7 202 14
255 21 19 3 54 7 76 10 178 22 436 79 612 136 111 37 116 31 -73 74 -367 82
-775 215 -992 323 -81 40 -80 46 12 57 33 3 94 13 135 20 41 8 98 17 125 21
28 3 53 8 56 10 3 1 30 6 60 10 63 8 92 12 99 14 3 1 -33 15 -80 31 -314 112
-539 204 -775 319 -156 75 -399 210 -392 216 1 1 47 5 102 9 55 4 116 9 135
10 19 2 61 5 93 6 31 1 57 5 57 9 0 4 -28 25 -62 47 -35 23 -85 62 -113 87
l-50 45 40 1 c22 0 51 7 64 14 21 12 30 11 66 -4 23 -10 81 -28 129 -40 48
-12 113 -33 144 -48 98 -45 182 -27 182 40 0 66 -27 79 -113 56 -54 -14 -113
-3 -138 25 -101 115 -101 114 -84 131 13 13 38 16 121 16 57 0 105 0 107 -1 1
0 15 5 32 11 40 15 217 40 291 40 47 0 69 5 95 23 42 28 51 70 18 87 -29 16
-150 7 -271 -21 -114 -25 -171 -33 -223 -30 -22 1 -103 3 -179 4 l-139 3 -25
29 c-23 27 -23 29 -6 42 10 7 30 13 44 13 44 0 163 46 180 70 19 27 167 77
242 82 49 3 70 20 66 54 -4 33 -25 38 -81 17 -74 -27 -350 -123 -354 -123 -3
0 36 27 86 61 50 33 132 100 182 149 l91 88 284 -1 285 -2 -2 35 c-2 49 0 60
11 60 6 0 10 -10 10 -22 0 -30 7 -19 13 20 3 19 -1 56 -10 84 -18 62 -6 82 26
42 15 -19 21 -41 21 -74 0 -42 4 -51 46 -93 27 -28 55 -47 67 -47 13 0 36 17
56 40 26 30 35 49 36 82 2 48 45 108 77 108 22 0 23 -16 3 -64 -9 -20 -13 -41
-10 -46 3 -5 6 -25 7 -44 1 -19 6 -34 12 -33 6 1 11 -8 10 -20 -1 -25 3 -26
125 -24 35 1 79 -4 97 -11 26 -9 36 -9 49 2 14 11 15 8 14 -26 -1 -22 -1 -55
0 -75 l1 -36 108 -1 c59 0 116 -1 127 -1 20 -1 20 -8 20 -799 l1 -797 27 -57
c30 -61 73 -105 140 -140 41 -23 48 -23 392 -23 l350 0 51 27 c71 37 132 111
151 181 4 12 7 266 8 565 1 298 4 544 6 547 3 2 20 7 39 10 58 10 69 15 76 38
10 29 6 57 -13 85 -12 20 -21 23 -60 20 l-46 -3 0 174 0 174 101 1 c95 1 102
0 103 -19 0 -11 1 -138 1 -283 l1 -262 -27 -25 c-35 -32 -35 -78 0 -110 l26
-24 2 -183 c2 -205 11 -237 78 -289 56 -44 87 -48 343 -46 261 3 273 5 326 64
67 74 63 47 63 493 1 375 2 406 18 418 29 22 40 49 28 72 -6 11 -17 20 -25 20
-18 0 -17 -3 -19 84 -1 64 0 69 24 78 29 11 122 16 147 7 23 -8 26 -59 3 -59
-9 0 -26 -9 -38 -20 -42 -39 -20 -116 35 -124 17 -3 18 -18 18 -229 1 -213 2
-228 21 -254 42 -57 75 -71 171 -71 149 0 147 0 129 -18 -16 -15 -18 -24 -18
-64 0 -43 3 -50 31 -64 25 -13 31 -13 49 0 24 16 44 76 35 102 -3 9 -12 24
-19 32 -11 13 -8 15 24 15 47 0 99 36 118 81 18 42 19 195 2 212 -9 9 -9 15 0
24 8 8 12 62 12 176 0 149 -1 162 -16 148 -18 -18 -24 -19 -43 -7 -20 13 -5
44 30 60 22 10 29 19 26 32 -7 27 16 54 39 44 36 -15 45 -14 39 5 -3 11 0 20
9 23 15 6 31 -8 31 -28 0 -5 31 -11 69 -12 58 -2 66 0 51 11 -26 19 -12 44 29
51 19 4 35 10 34 14 0 3 0 20 1 38 l1 32 238 0 c130 0 243 0 250 0 9 1 12 34
12 131 l0 130 -27 1 c-16 0 -128 0 -250 0 -203 0 -223 2 -224 17 0 9 -1 48 -2
86 l-2 70 -147 -1 -148 -1 0 311 c0 343 -2 356 -63 401 -26 19 -45 21 -198 24
-158 3 -173 2 -215 -18 -51 -25 -74 -62 -77 -123 -1 -27 -8 -47 -20 -56 -18
-12 -18 -14 0 -33 16 -18 18 -44 18 -259 1 -233 0 -240 -20 -244 -11 -3 -30
-4 -42 -3 -17 2 -20 6 -12 19 12 22 -4 64 -28 78 -10 5 -34 7 -54 5 l-34 -5 0
98 c0 54 4 104 8 111 5 6 5 18 0 25 -4 6 -8 172 -9 367 -1 387 -2 393 -60 454
-56 59 -86 65 -339 66 -289 1 -324 -9 -382 -108 l-28 -47 -1 -358 c-1 -259 2
-357 10 -356 42 5 50 -20 12 -40 -21 -12 -23 -20 -22 -70 0 -31 5 -62 9 -68 5
-7 5 -19 0 -25 -4 -7 -9 -35 -10 -63 -1 -27 -2 -58 -2 -67 -1 -15 -14 -17
-102 -15 -55 0 -102 4 -105 9 -3 4 -11 5 -19 1 -11 -4 -13 -1 -9 11 3 8 -1 28
-9 44 -16 34 -6 62 22 62 16 0 19 9 20 59 1 57 0 59 -30 70 -26 9 -29 13 -19
31 12 22 36 27 43 8 2 -7 4 277 3 632 l-2 645 -22 51 c-26 56 -77 111 -135
143 -44 24 -67 27 -67 7 0 -7 -7 -19 -15 -26 -13 -10 -15 -36 -14 -132 0 -66
-2 -122 -5 -125 -3 -4 -6 2 -6 13 -1 10 -2 58 -3 107 -1 48 -5 87 -8 87 -31 0
-35 -57 -24 -357 2 -60 -1 -105 -7 -109 -5 -3 -11 -4 -13 -3 -2 2 -6 58 -10
124 -3 65 -8 121 -10 124 -6 5 -8 -77 -4 -184 1 -44 3 -138 3 -210 1 -124 0
-130 -19 -130 -17 0 -20 7 -22 45 0 25 -4 124 -8 220 -3 96 -7 221 -8 276 -3
113 -12 135 -58 132 l-29 -2 6 -76 c2 -41 6 -93 9 -115 2 -22 7 -110 11 -195
5 -127 4 -153 -7 -143 -7 7 -14 39 -15 70 -5 137 -31 403 -41 413 -4 4 3 -158
12 -260 2 -30 7 -89 10 -130 2 -41 7 -111 10 -155 5 -73 8 -209 5 -245 0 -13
-2 -13 -9 0 -5 8 -12 89 -15 180 -4 91 -9 183 -11 205 -1 22 -6 89 -10 149 -6
100 -11 157 -20 211 -13 82 -19 97 -40 105 -30 12 -39 27 -41 74 -1 21 1 33 6
27 12 -21 22 17 9 40 -10 19 -19 20 -147 16 -150 -4 -149 -4 -208 -34 -50 -27
-100 -82 -127 -142 -20 -44 -21 -65 -22 -476 -1 -390 -2 -433 -18 -455 -22
-31 -22 -88 0 -112 15 -17 17 -46 18 -239 l0 -219 -45 -23 c-37 -18 -47 -29
-54 -59 -5 -21 -14 -38 -18 -38 -5 0 -6 10 -1 23 4 12 8 38 8 57 -1 31 3 36
24 38 31 3 39 10 50 49 7 25 6 35 -8 47 -41 37 -106 -2 -99 -60 2 -18 0 -30
-5 -27 -4 3 -19 2 -32 -1 -29 -7 -48 -57 -35 -92 14 -35 13 -37 -15 -32 -28 6
-28 6 -27 -113 l0 -57 -522 0 c-286 0 -524 2 -528 4 -4 3 4 29 17 59 31 70 91
250 99 295 3 19 10 62 16 95 27 159 -3 351 -80 510 -5 11 -19 44 -30 74 l-21
54 36 31 c25 22 34 37 30 48 -9 23 -37 31 -68 19 -29 -11 -30 -7 -44 90 -10
69 -10 417 0 489 9 59 25 169 32 210 10 60 27 168 32 204 l5 40 -58 -70 c-32
-38 -61 -71 -64 -74 -3 -3 -29 -33 -59 -67 -74 -86 -160 -135 -311 -176 -57
-16 -130 -29 -130 -24 0 2 7 27 16 57 18 62 16 52 47 198 27 129 33 121 -78
93 -38 -10 -71 -17 -73 -15 -2 1 6 23 18 49 23 50 87 239 94 277 2 13 11 50
19 83 9 33 18 78 21 100 4 22 11 65 16 95 12 73 17 113 25 185 4 33 8 76 10
94 2 19 7 87 10 150 4 64 8 140 10 169 1 28 -1 52 -6 52 -5 0 -9 -5 -9 -11 0
-17 -114 -247 -176 -356 -85 -147 -200 -317 -281 -415 -78 -93 -98 -112 -90
-82 3 11 8 48 12 84 3 36 8 79 10 97 2 17 6 62 10 99 6 67 5 68 -13 49 -10
-11 -24 -29 -32 -41 -14 -20 -78 -92 -182 -208 l-44 -48 -35 58 c-152 258
-188 401 -132 524 12 25 28 70 36 100 9 30 23 80 31 110 8 30 14 55 13 56 -1
1 -18 -8 -37 -19z m4106 -2754 c-10 -10 -19 5 -10 18 6 11 8 11 12 0 2 -7 1
-15 -2 -18z m-338 -159 c-3 -18 -48 -40 -48 -24 0 12 29 40 41 40 6 0 9 -7 7
-16z m337 -24 c0 -8 -10 -16 -22 -18 -25 -4 -26 -2 -17 23 8 19 39 16 39 -5z
m-319 -61 c3 -6 2 -14 -3 -18 -6 -3 -15 -16 -22 -29 -8 -16 -20 -22 -34 -20
-32 4 -28 38 8 59 36 21 42 22 51 8z m-171 -174 c0 -11 -6 -21 -12 -21 -7 -1
-17 -2 -23 -3 -5 0 -10 -8 -10 -16 0 -20 -36 -19 -44 1 -10 27 -7 34 18 34 13
0 27 7 30 16 8 22 41 13 41 -11z m-167 -8 c2 -10 -3 -17 -12 -17 -18 0 -29 16
-21 31 9 14 29 6 33 -14z m252 -27 c0 -6 -7 -13 -15 -16 -8 -4 -15 -14 -15
-23 0 -25 -11 -33 -26 -20 -11 9 -9 16 8 40 21 28 48 39 48 19z m25 -55 c0
-13 -8 -21 -22 -23 -17 -3 -23 2 -23 16 0 10 3 22 7 26 13 13 38 1 38 -19z
m160 -64 c10 -21 11 -31 4 -24 -10 10 -16 9 -31 -4 -14 -13 -20 -13 -33 -3
-19 16 -19 29 0 50 23 26 41 20 60 -19z m275 10 c0 -11 -5 -23 -11 -27 -15 -9
-33 12 -26 30 9 23 37 20 37 -3z m-362 -72 c4 -19 -27 -34 -41 -20 -14 14 0
43 20 39 10 -2 19 -10 21 -19z m-178 -29 c0 -5 -7 -10 -16 -10 -8 0 -12 5 -9
10 3 6 10 10 16 10 5 0 9 -4 9 -10z m-1463 -152 c-3 -8 -6 -5 -6 6 -1 11 2 17
5 13 3 -3 4 -12 1 -19z m3766 -39 c-4 -15 -9 -17 -17 -9 -8 8 -7 13 4 20 8 5
16 10 17 10 0 0 -1 -9 -4 -21z m-134 -42 c14 -18 -19 -50 -43 -41 -19 7 -19 9
-6 35 12 22 33 25 49 6z m24 -51 c3 -12 -30 -32 -39 -24 -11 12 5 40 21 36 9
-2 17 -7 18 -12z m-133 -36 c0 -5 -2 -10 -4 -10 -3 0 -8 5 -11 10 -3 6 -1 10
4 10 6 0 11 -4 11 -10z m-105 -50 c-18 -20 -45 -27 -45 -12 0 15 24 32 44 32
18 0 19 -1 1 -20z m-147 -248 c3 -18 -2 -22 -22 -22 -16 0 -26 -6 -26 -14 0
-23 -20 -30 -37 -13 -18 18 -10 52 11 44 8 -3 22 3 32 14 21 24 38 20 42 -9z
m-171 -16 c-4 -9 -10 -16 -16 -16 -13 0 -20 38 -7 43 16 6 30 -9 23 -27z m251
-23 c-2 -10 -11 -17 -19 -15 -12 2 -15 -4 -11 -23 3 -18 0 -25 -12 -25 -22 0
-20 32 4 58 25 26 43 29 38 5z m30 -48 c4 -20 -15 -36 -35 -28 -17 6 -17 40 0
46 19 8 32 2 35 -18z m-108 -166 c0 -5 -4 -9 -10 -9 -5 0 -10 7 -10 16 0 8 5
12 10 9 6 -3 10 -10 10 -16z"/>
<path d="M8250 11835 c0 -8 9 -15 20 -15 11 0 20 7 20 15 0 8 -9 15 -20 15
-11 0 -20 -7 -20 -15z"/>
<path d="M8537 11828 c-80 -21 -68 -110 13 -95 27 5 90 59 90 77 0 30 -34 36
-103 18z"/>
<path d="M8084 11789 c-24 -8 -54 -46 -54 -66 0 -17 25 -16 61 3 30 15 30 15
19 -5 -19 -37 2 -58 59 -57 27 1 48 -1 46 -3 -3 -2 0 -12 6 -22 13 -25 54 -24
72 2 18 25 11 59 -12 59 -10 0 -7 5 9 13 31 16 37 43 15 67 -15 17 -42 19 -64
5 -12 -7 -6 -42 9 -60 9 -10 7 -16 -8 -24 -21 -11 -42 5 -56 43 -5 15 -13 17
-37 12 -26 -5 -29 -3 -24 13 7 22 -12 32 -41 20z"/>
<path d="M8435 11672 c-61 -13 -82 -102 -24 -102 24 0 79 51 79 74 0 19 -29
34 -55 28z"/>
<path d="M8320 11630 c0 -5 5 -10 10 -10 6 0 10 5 10 10 0 6 -4 10 -10 10 -5
0 -10 -4 -10 -10z"/>
<path d="M8300 11539 c0 -5 5 -7 10 -4 6 3 10 8 10 11 0 2 -4 4 -10 4 -5 0
-10 -5 -10 -11z"/>
<path d="M2864 10482 c-84 -30 -143 -87 -175 -172 -18 -47 -19 -81 -18 -493 0
-243 3 -436 6 -429 7 17 53 16 53 -2 0 -17 -24 -28 -45 -20 -11 5 -15 -1 -15
-24 0 -17 -6 -32 -15 -36 -8 -3 -15 -14 -15 -25 0 -10 7 -21 15 -25 23 -9 18
-35 -10 -46 -13 -5 -27 -20 -31 -34 -7 -28 18 -81 43 -91 14 -5 10 -9 -21 -20
-21 -8 -43 -20 -47 -27 -6 -9 -9 -7 -9 8 0 12 -6 24 -14 27 -8 3 -19 21 -26
41 -8 26 -18 36 -41 41 -19 4 -29 13 -29 25 0 10 -6 20 -12 23 -10 3 -10 9 0
26 16 27 15 32 -2 25 -23 -9 -28 14 -6 28 19 12 20 22 20 233 0 121 -4 236
-10 255 -19 69 -84 127 -161 144 -22 5 -30 0 -45 -22 -16 -23 -18 -46 -17
-145 1 -66 -1 -116 -5 -113 -6 7 -11 82 -12 165 0 43 0 44 -19 27 -17 -15 -18
-29 -15 -134 9 -312 8 -349 -12 -329 -6 6 -13 84 -16 185 -1 34 -5 57 -9 50
-4 -7 -6 -69 -3 -138 10 -298 8 -380 -10 -380 -25 0 -28 16 -32 168 -2 81 -6
212 -8 292 -3 80 -5 155 -5 166 -1 35 -32 65 -60 57 -23 -6 -23 -6 -17 -117 4
-61 9 -131 12 -156 10 -81 11 -260 2 -260 -14 0 -17 18 -23 135 -3 61 -7 128
-9 150 -15 150 -19 181 -23 185 -7 6 9 -301 22 -440 12 -131 17 -355 7 -345
-6 6 -13 69 -17 140 -3 72 -8 155 -10 185 -2 30 -7 102 -10 160 -3 58 -8 121
-10 140 -2 19 -7 64 -11 100 -3 35 -10 76 -16 90 -5 14 -10 27 -10 30 -1 3
-14 13 -29 22 -19 12 -29 26 -29 42 0 13 -3 32 -6 40 -5 12 -2 15 10 10 12 -5
16 0 16 21 0 26 -1 27 -42 20 -81 -14 -126 -49 -161 -125 -18 -40 -20 -65 -20
-277 0 -203 -2 -233 -16 -238 -15 -6 -15 -7 0 -18 13 -10 16 -48 16 -283 l1
-270 -97 0 -96 1 -1 312 c-1 343 -2 349 -67 397 -26 19 -44 21 -194 24 -91 2
-177 1 -189 -2 -13 -4 -39 -20 -58 -37 -36 -31 -58 -95 -52 -152 2 -19 -1 -27
-13 -28 -14 0 -14 -1 -1 -7 13 -6 15 -41 14 -242 -1 -129 -2 -243 -3 -252 -1
-15 -14 -17 -123 -16 -163 2 -168 0 -168 -64 0 -43 2 -49 15 -38 18 15 31 7
52 -33 13 -26 13 -30 1 -20 -11 10 -17 10 -27 0 -6 -6 -17 -12 -24 -13 -7 0
-19 -2 -28 -2 -9 -1 -15 -11 -15 -23 1 -25 -13 -33 -34 -19 -12 7 -12 13 -4
27 11 19 -15 19 -476 14 l-55 -1 0 -130 0 -130 50 -1 c27 0 161 0 298 0 l247
0 0 -76 0 -75 30 4 c16 3 30 0 30 -5 0 -6 17 -7 43 -3 59 9 176 11 184 2 4 -4
8 -38 8 -77 l1 -69 -32 0 c-26 0 -36 -6 -46 -27 -11 -22 -20 -28 -43 -26 -37
3 -54 -12 -50 -44 6 -58 86 -73 96 -18 3 14 15 21 39 25 l35 6 0 -191 c0 -185
-1 -191 -20 -191 -14 1 -20 -5 -20 -19 0 -14 7 -20 24 -20 14 0 27 -8 31 -20
10 -26 49 -61 80 -73 14 -5 102 -9 197 -8 158 1 174 3 200 22 38 29 61 71 64
119 1 22 6 48 11 57 4 9 4 19 -1 22 -5 3 -8 100 -8 216 1 189 2 210 18 215 33
11 28 65 -7 65 -6 0 -11 10 -10 22 1 22 7 23 71 19 8 -1 12 -7 9 -14 -8 -21
21 -49 50 -49 29 0 57 28 49 49 -3 7 -1 13 4 13 6 0 10 -213 10 -538 0 -591
-2 -567 62 -635 54 -59 65 -61 321 -64 247 -2 306 2 277 19 -21 11 -21 22 -1
42 20 21 57 4 47 -21 -6 -16 5 -8 63 48 l21 20 -28 29 c-45 44 -21 80 29 44
l22 -15 0 362 0 362 24 22 c30 28 28 81 -4 105 -19 14 -21 25 -18 120 l3 104
55 -1 c30 -1 59 -2 64 -2 6 -1 -4 -16 -21 -33 -34 -36 -50 -66 -47 -85 1 -7 2
-19 3 -27 1 -18 47 -63 71 -69 10 -3 30 1 44 9 l26 13 0 -507 c0 -500 0 -507
20 -520 12 -7 18 -17 15 -22 -3 -5 -1 -19 5 -30 9 -18 8 -20 -15 -20 l-26 0 4
-117 c6 -145 5 -141 34 -160 29 -19 29 -37 2 -57 l-22 -15 28 -43 c37 -59 113
-114 178 -128 35 -8 156 -10 367 -8 294 3 318 4 360 24 81 37 147 118 165 203
4 19 7 237 7 486 l0 452 -26 26 c-31 31 -33 47 -6 47 11 0 20 -5 20 -12 0 -6
2 -9 5 -6 3 3 0 18 -7 33 -10 23 -10 29 0 33 6 2 12 14 12 27 0 18 -4 22 -19
18 -26 -7 -38 27 -15 44 9 7 20 14 25 15 10 4 16 144 6 154 -4 4 -7 0 -7 -9 0
-11 -8 -17 -24 -17 -18 0 -27 8 -35 31 -15 44 -14 69 5 76 15 5 39 -19 56 -57
4 -9 7 -3 7 17 1 17 -3 35 -9 38 -14 8 -13 42 1 47 7 2 11 31 11 76 0 60 3 72
16 73 10 1 67 1 128 1 107 0 111 1 111 21 0 12 1 45 2 74 l1 52 245 -2 245 -2
0 133 0 132 -27 1 c-16 0 -126 1 -245 0 l-218 0 -1 57 c0 31 -2 70 -2 86 l-2
29 -127 0 -126 -1 0 352 c1 247 4 353 12 359 8 5 8 9 -1 15 -15 10 -16 298 0
330 8 16 8 25 0 30 -7 5 -10 83 -10 228 -1 121 -4 236 -8 255 -18 82 -78 159
-160 203 -38 20 -54 21 -375 23 -300 3 -340 1 -386 -15z m26 -740 c0 -13 -12
-22 -22 -16 -10 6 -1 24 13 24 5 0 9 -4 9 -8z m-130 -61 c0 -4 -11 -14 -25
-21 -34 -18 -50 -2 -29 28 12 18 19 20 35 12 10 -6 19 -14 19 -19z m10 -41 c0
-13 -7 -20 -20 -20 -19 0 -27 20 -13 33 13 14 33 6 33 -13z m72 -42 c5 -15
-34 -48 -56 -48 -25 0 -32 31 -11 46 23 17 62 18 67 2z m38 -53 c0 -21 -19
-28 -36 -14 -14 12 -14 14 2 26 19 14 34 9 34 -12z m-125 -44 c7 -12 -22 -41
-40 -41 -22 0 -27 17 -9 34 17 18 40 21 49 7z m50 -87 c0 -10 -8 -20 -18 -22
-22 -4 -35 27 -16 39 20 12 34 5 34 -17z m-417 -102 c2 -15 -2 -22 -13 -22 -9
0 -25 -10 -36 -22 -19 -23 -19 -23 -34 -4 -11 14 -12 23 -4 33 6 7 16 10 21 7
5 -3 16 4 25 15 18 26 37 23 41 -7z m-174 2 c18 -17 13 -34 -10 -34 -8 0 -14
10 -14 25 0 29 3 30 24 9z m229 -70 c9 -10 -4 -34 -19 -34 -8 0 -14 9 -14 20
0 19 19 27 33 14z m486 -96 c-8 -15 -13 -17 -24 -8 -11 9 -12 17 -4 32 8 15
13 17 24 8 11 -9 12 -17 4 -32z m-539 -88 c0 -5 -4 -10 -10 -10 -5 0 -10 5
-10 10 0 6 5 10 10 10 6 0 10 -4 10 -10z m216 -117 c10 -7 28 -13 41 -13 23 0
23 -2 23 -114 l0 -114 -100 1 -100 0 0 154 c0 85 4 152 8 149 25 -15 71 -15
83 0 12 15 14 13 20 -17 4 -18 15 -39 25 -46z m-1656 -362 c0 -11 -5 -23 -11
-27 -14 -8 -29 14 -22 33 8 20 33 16 33 -6z m-540 -101 c0 -5 -7 -10 -16 -10
-8 0 -12 5 -9 10 3 6 10 10 16 10 5 0 9 -4 9 -10z m3155 -509 c10 -18 -17 -23
-33 -7 -15 15 -15 16 5 16 12 0 24 -4 28 -9z m123 -140 c22 -13 10 -46 -16
-45 -14 0 -21 -4 -18 -12 7 -19 -17 -46 -35 -39 -9 3 -21 17 -27 30 -15 33 9
60 39 45 16 -9 19 -7 19 10 0 21 16 26 38 11z m32 -182 c0 -6 -4 -7 -10 -4 -5
3 -10 11 -10 16 0 6 5 7 10 4 6 -3 10 -11 10 -16z m-851 -348 c18 -12 7 -41
-17 -41 -24 0 -42 19 -35 36 6 16 31 18 52 5z m-741 -68 c2 -8 -5 -13 -17 -13
-21 0 -35 13 -24 24 10 10 36 3 41 -11z m251 -2 c10 -7 11 -13 2 -30 -13 -23
-13 -23 -35 -15 -16 6 -22 35 -9 47 9 9 25 8 42 -2z m-69 -41 c0 -5 9 -19 20
-30 34 -34 20 -83 -21 -73 -21 6 -45 72 -36 97 7 17 37 22 37 6z m-50 -120 c0
-25 -21 -31 -42 -12 -25 21 -6 57 22 42 11 -6 20 -19 20 -30z m-54 -15 c13
-20 14 -28 4 -40 -7 -8 -16 -15 -21 -15 -16 0 -39 32 -39 56 0 33 34 32 56 -1z
m724 -45 c0 -5 -4 -10 -10 -10 -5 0 -10 5 -10 10 0 6 5 10 10 10 6 0 10 -4 10
-10z m-123 -36 c-3 -3 -12 -4 -19 -1 -8 3 -5 6 6 6 11 1 17 -2 13 -5z m73 -25
c-13 -8 -13 -11 2 -22 28 -22 26 -50 -4 -61 -23 -8 -32 -6 -52 13 -30 28 -24
46 23 70 36 19 59 19 31 0z m-600 -29 c0 -5 -4 -10 -10 -10 -5 0 -10 5 -10 10
0 6 5 10 10 10 6 0 10 -4 10 -10z m679 -84 c15 -18 -2 -56 -24 -56 -21 0 -35
31 -24 52 12 22 32 23 48 4z m-165 -92 c21 -21 20 -37 -4 -51 -15 -10 -22 -10
-35 3 -18 19 -20 50 -2 57 20 9 25 8 41 -9z m-64 -55 c0 -12 -7 -19 -19 -19
-22 0 -37 30 -20 41 18 11 39 -1 39 -22z m49 -18 c12 -8 12 -12 2 -25 -24 -29
-60 -13 -47 19 6 17 24 19 45 6z m211 -76 c0 -8 -7 -15 -15 -15 -8 0 -15 7
-15 15 0 8 7 15 15 15 8 0 15 -7 15 -15z"/>
<path d="M2600 8819 c0 -11 5 -16 13 -13 8 3 14 11 14 18 0 7 -6 13 -14 13 -7
0 -13 -8 -13 -18z"/>
<path d="M5662 10203 c-7 -3 -17 -16 -22 -28 -7 -18 -18 -24 -47 -27 -33 -3
-38 -7 -41 -30 -4 -31 27 -68 55 -64 10 2 24 14 31 28 8 18 23 28 47 32 19 4
35 11 35 16 0 4 3 15 6 23 3 9 -4 25 -15 36 -22 22 -27 23 -49 14z"/>
<path d="M5390 10182 c-8 -3 -18 -9 -21 -14 -8 -13 1 -58 12 -59 5 -1 15 -2
22 -3 16 -3 37 13 37 29 0 21 -34 53 -50 47z"/>
<path d="M4105 10050 c3 -5 8 -10 11 -10 2 0 4 5 4 10 0 6 -5 10 -11 10 -5 0
-7 -4 -4 -10z"/>
<path d="M4143 10053 c-14 -5 -17 -29 -5 -37 4 -2 15 2 25 9 13 10 15 15 5 22
-7 6 -19 8 -25 6z"/>
<path d="M3960 9987 c0 -8 9 -22 20 -32 18 -16 20 -16 26 -1 3 9 4 23 0 31 -7
19 -46 20 -46 2z"/>
<path d="M11990 9960 c-23 -23 -17 -50 11 -50 15 0 19 7 19 35 0 41 -3 42 -30
15z"/>
<path d="M4222 9919 c2 -6 8 -10 13 -10 5 0 11 4 13 10 2 6 -4 11 -13 11 -9 0
-15 -5 -13 -11z"/>
<path d="M4272 9638 c3 -7 13 -15 24 -17 16 -3 17 -1 5 13 -16 19 -34 21 -29
4z"/>
<path d="M11940 9636 c-27 -27 4 -78 41 -69 25 7 40 42 28 65 -10 19 -52 21
-69 4z"/>
<path d="M4342 9615 c-10 -22 -9 -25 8 -25 26 0 35 19 18 36 -13 13 -16 11
-26 -11z"/>
<path d="M4250 9566 c0 -9 5 -16 10 -16 6 0 10 4 10 9 0 6 -4 13 -10 16 -5 3
-10 -1 -10 -9z"/>
<path d="M4185 9561 c-7 -12 12 -24 25 -16 11 7 4 25 -10 25 -5 0 -11 -4 -15
-9z"/>
<path d="M13137 9456 c-7 -19 4 -27 21 -17 10 6 10 10 -1 20 -12 9 -16 8 -20
-3z"/>
<path d="M3910 9409 c0 -5 5 -7 10 -4 6 3 10 8 10 11 0 2 -4 4 -10 4 -5 0 -10
-5 -10 -11z"/>
<path d="M1510 9400 c0 -5 5 -10 10 -10 6 0 10 5 10 10 0 6 -4 10 -10 10 -5 0
-10 -4 -10 -10z"/>
<path d="M1544 9389 c-3 -6 -1 -16 4 -21 13 -13 45 8 36 23 -7 12 -31 11 -40
-2z"/>
<path d="M3890 9351 c0 -18 18 -21 30 -6 10 13 9 15 -9 15 -11 0 -21 -4 -21
-9z"/>
<path d="M13030 9315 c0 -9 6 -12 15 -9 8 4 12 10 9 15 -8 14 -24 10 -24 -6z"/>
<path d="M475 9271 c-7 -12 12 -24 25 -16 11 7 4 25 -10 25 -5 0 -11 -4 -15
-9z"/>
<path d="M3837 9273 c-4 -3 -7 -13 -7 -21 0 -12 3 -12 15 -2 8 7 15 16 15 21
0 11 -14 12 -23 2z"/>
<path d="M3915 9260 c-4 -7 0 -19 9 -28 21 -21 27 -12 12 17 -9 17 -15 20 -21
11z"/>
<path d="M3825 9220 c-4 -6 -3 -16 3 -22 6 -6 12 -6 17 2 4 6 3 16 -3 22 -6 6
-12 6 -17 -2z"/>
<path d="M3995 9209 c-6 -9 20 -30 28 -22 12 12 7 30 -8 30 -9 0 -18 -4 -20
-8z"/>
<path d="M3840 9165 c0 -8 7 -15 15 -15 8 0 15 4 15 9 0 5 -7 11 -15 15 -9 3
-15 0 -15 -9z"/>
<path d="M12854 9058 c-28 -7 -43 -26 -58 -72 -5 -15 -13 -17 -50 -13 -58 7
-86 -12 -86 -59 0 -68 82 -118 132 -80 15 11 24 33 27 68 1 4 18 10 39 13 61
10 80 22 87 54 7 35 -15 86 -42 93 -10 3 -32 1 -49 -4z"/>
<path d="M12370 9010 c-17 -32 -11 -70 15 -95 30 -31 40 -31 71 1 28 27 27 64
-1 93 -22 22 -73 23 -85 1z"/>
<path d="M12045 8994 c-29 -30 -13 -84 25 -84 23 0 43 46 30 69 -14 26 -37 33
-55 15z"/>
<path d="M4317 8974 c-13 -14 -8 -74 7 -74 7 0 28 -3 45 -6 31 -6 31 -6 20 25
-7 20 -18 31 -29 31 -11 0 -23 7 -28 15 -4 9 -11 12 -15 9z"/>
<path d="M410 8921 c0 -11 4 -21 9 -21 18 0 21 18 6 30 -13 10 -15 9 -15 -9z"/>
<path d="M1596 8905 c-5 -14 17 -28 28 -18 10 10 7 21 -8 26 -8 3 -17 0 -20
-8z"/>
<path d="M4849 8798 c-12 -42 2 -78 31 -78 11 0 24 9 30 20 15 28 -4 60 -35
60 -14 0 -25 -1 -26 -2z"/>
<path d="M12201 8764 c0 -11 3 -14 6 -6 3 7 2 16 -1 19 -3 4 -6 -2 -5 -13z"/>
<path d="M4340 8685 c-12 -13 -33 -26 -46 -29 -34 -9 -30 -26 6 -26 17 0 31 1
33 2 1 1 12 -4 24 -10 16 -9 30 -9 57 1 19 6 36 15 38 19 2 4 -18 21 -44 37
l-46 29 -22 -23z"/>
<path d="M4606 8531 c-2 -3 -4 -63 -4 -133 l-1 -128 32 0 33 0 0 130 c0 72 -2
130 -5 131 -33 5 -52 5 -55 0z"/>
<path d="M4557 8463 c1 -38 2 -96 2 -130 1 -35 5 -63 10 -63 5 0 8 53 6 123
-3 141 -3 137 -12 137 -5 0 -7 -30 -6 -67z"/>
<path d="M16358 8146 c-23 -17 -23 -26 1 -26 14 0 19 6 18 20 -1 11 -1 20 -2
20 0 0 -8 -7 -17 -14z"/>
<path d="M4446 8083 c7 -35 21 -52 41 -49 25 4 26 20 3 49 -28 36 -50 36 -44
0z"/>
<path d="M12990 8100 c0 -5 5 -10 10 -10 6 0 10 5 10 10 0 6 -4 10 -10 10 -5
0 -10 -4 -10 -10z"/>
<path d="M12995 8070 c-3 -5 -2 -10 4 -10 5 0 13 5 16 10 3 6 2 10 -4 10 -5 0
-13 -4 -16 -10z"/>
<path d="M13056 8061 c-3 -5 1 -14 8 -20 16 -13 32 2 21 19 -8 12 -22 13 -29
1z"/>
<path d="M4000 7999 c-37 -23 -63 -75 -49 -102 6 -9 14 -15 20 -12 5 4 9 2 9
-4 0 -6 12 -21 26 -35 25 -23 28 -23 63 -9 20 8 48 24 63 34 24 17 26 25 25
72 -2 43 -5 52 -22 55 -11 2 -27 6 -35 9 -34 12 -70 9 -100 -8z"/>
<path d="M719 7978 c-1 -7 -1 -16 0 -20 0 -5 -4 -8 -10 -8 -8 0 -8 -4 1 -14
18 -23 41 -9 30 19 -5 13 -6 26 -3 29 4 3 1 6 -5 6 -7 0 -13 -6 -13 -12z"/>
<path d="M12665 7970 c3 -5 8 -10 11 -10 2 0 4 5 4 10 0 6 -5 10 -11 10 -5 0
-7 -4 -4 -10z"/>
<path d="M3865 7960 c-10 -16 7 -31 23 -21 10 6 10 10 -2 20 -10 9 -16 9 -21
1z"/>
<path d="M557 7943 c-14 -14 -7 -62 11 -72 38 -20 72 35 40 67 -13 13 -41 16
-51 5z"/>
<path d="M1501 7834 c0 -11 3 -14 6 -6 3 7 2 16 -1 19 -3 4 -6 -2 -5 -13z"/>
<path d="M13030 7839 c0 -5 5 -7 10 -4 6 3 10 8 10 11 0 2 -4 4 -10 4 -5 0
-10 -5 -10 -11z"/>
<path d="M3910 7795 c0 -9 9 -15 21 -15 18 0 19 2 9 15 -7 8 -16 15 -21 15 -5
0 -9 -7 -9 -15z"/>
<path d="M13003 7733 c-26 -5 -30 -21 -7 -30 20 -7 67 14 59 27 -6 10 -13 11
-52 3z"/>
<path d="M15455 7670 c-3 -5 -1 -10 4 -10 6 0 11 5 11 10 0 6 -2 10 -4 10 -3
0 -8 -4 -11 -10z"/>
<path d="M657 7643 c-4 -3 -7 -11 -7 -17 0 -6 5 -5 12 2 6 6 9 14 7 17 -3 3
-9 2 -12 -2z"/>
<path d="M13023 7557 c-8 -16 -7 -25 2 -34 17 -16 25 -6 25 29 0 34 -13 36
-27 5z"/>
<path d="M720 7559 c0 -5 5 -7 10 -4 6 3 10 8 10 11 0 2 -4 4 -10 4 -5 0 -10
-5 -10 -11z"/>
<path d="M15454 7549 c-3 -6 -2 -15 4 -21 7 -7 14 -3 21 11 10 17 9 21 -3 21
-8 0 -18 -5 -22 -11z"/>
<path d="M12886 7503 c-11 -11 -6 -23 9 -23 8 0 15 4 15 9 0 13 -16 22 -24 14z"/>
<path d="M15490 7500 c0 -5 5 -10 11 -10 5 0 7 5 4 10 -3 6 -8 10 -11 10 -2 0
-4 -4 -4 -10z"/>
<path d="M12295 7450 c-3 -5 1 -10 10 -10 9 0 13 5 10 10 -3 6 -8 10 -10 10
-2 0 -7 -4 -10 -10z"/>
<path d="M1395 7329 c-48 -43 -47 -75 6 -123 l40 -38 46 17 c66 26 83 46 83
103 l0 48 -42 11 c-71 18 -95 15 -133 -18z"/>
<path d="M15980 7346 c0 -37 20 -66 45 -66 29 0 31 7 9 38 -21 30 -54 48 -54
28z"/>
<path d="M1277 7304 c-13 -13 -7 -24 14 -24 11 0 19 5 17 12 -5 14 -22 21 -31
12z"/>
<path d="M15523 7235 c-18 -14 -34 -39 -38 -57 -7 -29 -3 -36 36 -70 47 -41
55 -42 124 -4 36 19 41 26 45 68 7 58 2 72 -30 76 -14 1 -43 5 -65 7 -32 4
-46 0 -72 -20z"/>
<path d="M12960 7225 c-11 -13 -10 -14 4 -9 9 3 16 10 16 15 0 13 -6 11 -20
-6z"/>
<path d="M15401 7207 c-9 -12 -8 -16 3 -20 19 -7 32 11 19 24 -6 6 -14 5 -22
-4z"/>
<path d="M1322 7138 c5 -15 28 -18 29 -3 0 6 -7 12 -17 13 -10 3 -15 -1 -12
-10z"/>
<path d="M14364 7025 c-9 -36 2 -55 29 -55 36 0 53 24 39 55 -16 35 -59 35
-68 0z"/>
<path d="M15453 7033 c9 -9 19 -14 23 -11 10 10 -6 28 -24 28 -15 0 -15 -1 1
-17z"/>
<path d="M15818 6713 c7 -3 16 -2 19 1 4 3 -2 6 -13 5 -11 0 -14 -3 -6 -6z"/>
<path d="M8900 6240 c0 -5 5 -10 10 -10 6 0 10 5 10 10 0 6 -4 10 -10 10 -5 0
-10 -4 -10 -10z"/>
<path d="M8990 6240 c0 -5 5 -10 10 -10 6 0 10 5 10 10 0 6 -4 10 -10 10 -5 0
-10 -4 -10 -10z"/>
<path d="M8951 6143 c-32 -27 -34 -59 -5 -82 l24 -19 -24 -6 c-13 -3 -26 -11
-29 -18 -8 -23 12 -58 38 -68 56 -21 86 31 45 75 l-20 21 30 22 c17 13 27 17
24 8 -3 -7 2 -16 11 -19 8 -4 20 -18 25 -32 10 -27 37 -33 71 -14 18 9 19 7
13 -15 -13 -54 69 -37 94 20 20 43 16 57 -15 49 -16 -3 -35 -13 -44 -21 -23
-20 -25 -18 -21 20 2 19 -1 37 -8 41 -18 11 -93 13 -112 3 -14 -7 -18 -4 -18
12 0 13 -10 24 -26 30 -32 13 -28 13 -53 -7z"/>
<path d="M8880 6134 c0 -8 5 -12 10 -9 6 3 10 10 10 16 0 5 -4 9 -10 9 -5 0
-10 -7 -10 -16z"/>
<path d="M8970 5910 c-13 -8 -13 -11 2 -27 21 -20 45 -5 35 21 -7 18 -16 20
-37 6z"/>
<path d="M8732 5859 c-31 -12 -49 -53 -32 -74 7 -8 20 -15 29 -15 13 0 16 -8
13 -40 -4 -34 -1 -41 19 -49 49 -18 109 24 109 75 0 36 -23 51 -60 39 -16 -5
-19 -2 -15 23 4 35 -26 55 -63 41z"/>
<path d="M8837 5653 c-12 -11 -8 -23 8 -23 8 0 15 7 15 15 0 16 -12 20 -23 8z"/>
<path d="M8590 5630 c0 -5 5 -10 11 -10 5 0 7 5 4 10 -3 6 -8 10 -11 10 -2 0
-4 -4 -4 -10z"/>
<path d="M6417 5563 c-12 -11 -8 -23 8 -23 8 0 15 7 15 15 0 16 -12 20 -23 8z"/>
<path d="M6208 5523 c-8 -10 -14 -28 -12 -40 3 -16 0 -21 -10 -17 -20 8 -47
-25 -44 -54 2 -13 12 -31 24 -38 30 -20 54 1 56 48 1 21 4 35 8 33 4 -2 17 3
29 11 32 23 26 68 -10 72 -15 2 -31 -4 -41 -15z"/>
<path d="M6252 5434 c-52 -36 -8 -117 52 -94 59 22 58 110 -2 110 -15 0 -38
-7 -50 -16z"/>
<path d="M6536 5310 c-51 -57 -46 -98 15 -131 17 -9 25 -5 52 24 l33 34 18
-25 c14 -18 21 -21 27 -11 12 19 -49 129 -78 140 -13 5 -26 9 -27 9 -2 0 -20
-18 -40 -40z"/>
<path d="M6413 5180 c-55 -22 -45 -92 14 -98 63 -6 90 58 40 93 -24 17 -24 17
-54 5z"/>
<path d="M6748 5183 c-20 -5 -23 -20 -9 -42 8 -12 12 -12 25 -2 29 24 18 51
-16 44z"/>
<path d="M6067 5093 c-4 -3 -7 -17 -7 -30 0 -18 6 -23 24 -23 15 0 26 7 29 19
7 29 -26 54 -46 34z"/>
</g>
</svg>
